<?xml version="1.0" encoding="UTF-8"?> <svg xmlns="http://www.w3.org/2000/svg" xmlns:xlink="http://www.w3.org/1999/xlink" width="235px" height="79px" viewBox="0 0 235 79"> <!-- Generator: Sketch 49.3 (51167) - http://www.bohemiancoding.com/sketch --> <title>Page 1</title> <desc>Created with Sketch.</desc> <defs> <polygon id="path-1" points="0 0.109655938 234.485372 0.109655938 234.485372 78.4902198 0 78.4902198"></polygon> </defs> <g id="Page-1" stroke="none" stroke-width="1" fill="none" fill-rule="evenodd"> <g id="Desktop-HD" transform="translate(-761.000000, -1318.000000)"> <g id="Group-2" transform="translate(761.000000, 1077.000000)"> <g id="Group-4"> <g id="Group-4-Copy-4" transform="translate(0.000000, 240.000000)"> <g id="Page-1"> <g id="Group-10" transform="translate(0.000000, 1.044963)"> <g id="Group-3"> <mask id="mask-2" fill="white"> <use xlink:href="#path-1"></use> </mask> <g id="Clip-2"></g> <path d="M215.812697,0.109309656 L18.6836404,0.109309656 C17.9645283,0.109309656 17.2546504,0.109309656 16.5378468,0.112772475 C15.9387791,0.116235294 15.3431743,0.127778024 14.7371809,0.138166482 C13.4340067,0.170486127 12.1135183,0.251285239 10.8114983,0.484448391 C9.4990899,0.714148724 8.28017758,1.10660155 7.08665927,1.71259489 C5.9127636,2.31397114 4.84159822,3.09425971 3.91471698,4.02229523 C2.97629301,4.95033074 2.19946726,6.02611321 1.60501665,7.19885461 C0.995560488,8.39121865 0.610033296,9.61590233 0.380332963,10.9283108 C0.144861265,12.2257137 0.0629078801,13.5392764 0.0294339623,14.8516848 C0.0121198668,15.453061 0.00981132075,16.0555916 -0.000577136515,16.6558135 L-0.000577136515,18.7958357 L-0.000577136515,59.8060022 L-0.000577136515,61.9494872 C0.00981132075,62.5577891 0.0121198668,63.1476226 0.0294339623,63.7559245 C0.0629078801,65.068333 0.144861265,66.3807414 0.380332963,67.6781443 C0.610033296,68.991707 0.995560488,70.222162 1.60501665,71.409909 C2.19946726,72.576879 2.97629301,73.6526615 3.91471698,74.5737714 C4.84159822,75.5087325 5.9127636,76.2878668 7.08665927,76.8834717 C8.28017758,77.4952364 9.4990899,77.8819179 10.8114983,78.1185438 C12.1135183,78.3528613 13.4340067,78.4290433 14.7371809,78.46598 C15.3431743,78.478677 15.9387791,78.4867569 16.5378468,78.4867569 C17.2546504,78.4902198 17.9645283,78.4902198 18.6836404,78.4902198 L215.812697,78.4902198 C216.516804,78.4902198 217.232453,78.4902198 217.936559,78.4867569 C218.534473,78.4867569 219.146238,78.478677 219.742997,78.46598 C221.056559,78.4290433 222.372431,78.3528613 223.662908,78.1185438 C224.975316,77.8819179 226.195383,77.4952364 227.401598,76.8834717 C228.573185,76.2878668 229.644351,75.5087325 230.570078,74.5737714 C231.503885,73.6526615 232.28071,72.576879 232.885549,71.409909 C233.486926,70.222162 233.87707,68.991707 234.09869,67.6781443 C234.339933,66.3807414 234.41727,65.068333 234.462286,63.7559245 C234.470366,63.1476226 234.470366,62.5577891 234.470366,61.9494872 C234.485372,61.2373008 234.485372,60.5297314 234.485372,59.8060022 L234.485372,18.7958357 C234.485372,18.0778779 234.485372,17.3656915 234.470366,16.6558135 C234.470366,16.0555916 234.470366,15.453061 234.462286,14.8516848 C234.41727,13.5392764 234.339933,12.2257137 234.09869,10.9283108 C233.87707,9.61590233 233.486926,8.39121865 232.885549,7.19885461 C232.28071,6.02611321 231.503885,4.95033074 230.570078,4.02229523 C229.644351,3.09425971 228.573185,2.31397114 227.401598,1.71259489 C226.195383,1.10660155 224.975316,0.714148724 223.662908,0.484448391 C222.372431,0.251285239 221.056559,0.170486127 219.742997,0.138166482 C219.146238,0.127778024 218.534473,0.116235294 217.936559,0.112772475 C217.232453,0.109309656 216.516804,0.109309656 215.812697,0.109309656" id="Fill-1" fill="#231F20" mask="url(#mask-2)"></path> </g> <path d="M16.547889,76.7758935 C15.9511299,76.7758935 15.368222,76.7678135 14.7760799,76.7551165 C13.6806748,76.7239512 12.3809634,76.6627747 11.1135716,76.4353829 C9.91774473,76.2183796 8.85465927,75.8674806 7.86660155,75.361909 C6.84506992,74.8436404 5.92626859,74.1730078 5.1298202,73.3696337 C4.31836626,72.5731853 3.65119645,71.6590011 3.12946504,70.6328524 C2.62158491,69.6436404 2.27414872,68.5817092 2.06522531,67.3858824 C1.82629079,66.0677026 1.76511432,64.7299001 1.73972031,63.7118313 C1.72702331,63.2986016 1.71086349,61.9227081 1.71086349,61.9227081 L1.71086349,16.6555827 C1.71086349,16.6555827 1.72817758,15.3016204 1.73972031,14.9033962 C1.76511432,13.8772475 1.82629079,12.5394451 2.06407103,11.2351165 C2.27414872,10.032364 2.62043063,8.97158713 3.12946504,7.97775805 C3.6488879,6.95045505 4.31721199,6.03049945 5.11827747,5.23866815 C5.92857714,4.42721421 6.85084129,3.7554273 7.86660155,3.23485017 C8.87197336,2.72466149 9.93390455,2.37491676 11.1054917,2.16945616 C12.4248257,1.93283019 13.7626282,1.87396226 14.780697,1.84741398 L16.5490433,1.82432852 L217.926979,1.82432852 L219.716102,1.84856826 C220.721474,1.87396226 222.059276,1.93283019 223.357834,2.16714761 C224.538655,2.37376249 225.606357,2.72466149 226.632506,3.24062153 C227.636724,3.7554273 228.557834,4.42721421 229.358899,5.23058824 C230.161119,6.02703663 230.832906,6.95160932 231.365026,7.98237514 C231.869443,8.98428413 232.21457,10.045061 232.413105,11.2143396 C232.641651,12.450566 232.712062,13.7202664 232.753616,14.9114761 C232.759387,15.4666815 232.759387,16.0634406 232.759387,16.6555827 C232.775547,17.3908546 232.775547,18.0903441 232.775547,18.7956049 L232.775547,59.8057714 C232.775547,60.5179578 232.775547,61.2128302 232.759387,61.9123196 C232.759387,62.5494784 232.759387,63.1335405 232.751307,63.7349168 C232.712062,64.8891898 232.641651,66.1577358 232.416568,67.3662597 C232.21457,68.5678579 231.869443,69.6309434 231.359254,70.6386238 C230.830597,71.6566926 230.15881,72.5778024 229.369287,73.3546282 C228.558988,74.1730078 227.640186,74.8413319 226.626735,75.3584462 C225.60982,75.8744062 224.573283,76.2172253 223.357834,76.4353829 C222.103139,76.6627747 220.803427,76.7239512 219.695325,76.7551165 C219.121651,76.7678135 218.520275,76.7758935 217.937367,76.7758935 L215.812351,76.7793563 L16.547889,76.7758935 Z" id="Fill-4" fill="#FEFEFE"></path> <path d="M48.9819223,39.0829922 C48.9311343,33.4778424 53.5713119,30.7502952 53.7836981,30.6221709 C51.1565727,26.7899845 47.0819889,26.2659445 45.6506903,26.225545 C42.2294251,25.866566 38.9120444,28.2732253 37.1679378,28.2732253 C35.3903574,28.2732253 32.7066726,26.2613274 29.8152186,26.3201953 C26.0938424,26.3790633 22.6102464,28.5329367 20.7010788,31.8791743 C16.7603907,38.7020821 19.6991698,48.7304062 23.4747969,54.2455228 C25.3631876,56.9465216 27.5701576,59.9626371 30.459303,59.856444 C33.2849634,59.7387081 34.3411232,58.0534695 37.752,58.0534695 C41.1328657,58.0534695 42.123232,59.856444 45.070091,59.7871876 C48.1035205,59.7387081 50.0138424,57.0758002 51.8364395,54.3494073 C54.0191698,51.2524928 54.895263,48.2029034 54.9298912,48.0470766 C54.8594806,48.0239911 49.039636,45.8031698 48.9819223,39.0829922" id="Fill-6" fill="#231F20"></path> <path d="M43.4156715,22.5983574 C44.9346948,20.6972697 45.9758491,18.1105438 45.6872808,15.485727 C43.4860821,15.5826859 40.7342952,17.0070588 39.1506326,18.8665927 C37.7493452,20.5056604 36.4969589,23.1916537 36.8201554,25.7172031 C39.2914539,25.9007325 41.8285461,24.4705882 43.4156715,22.5983574" id="Fill-8" fill="#231F20"></path> </g> <path d="M82.8918091,54.3349789 L73.616071,54.3349789 L71.3894784,60.9120266 L67.460333,60.9120266 L76.245505,36.5787969 L80.3270144,36.5787969 L89.1133407,60.9120266 L85.1172475,60.9120266 L82.8918091,54.3349789 Z M74.5775805,51.3003951 L81.9291454,51.3003951 L78.3047281,40.6256781 L78.2031521,40.6256781 L74.5775805,51.3003951 Z" id="Fill-11" fill="#231F20"></path> <g id="Group-30" transform="translate(69.256382, 17.204786)" fill="#231F20"> <path d="M38.8298602,34.8378069 C38.8298602,40.3506149 35.8795383,43.8930788 31.4263529,43.8930788 C28.898495,43.8930788 26.8912142,42.7618912 25.8442886,40.7892386 L25.7600266,40.7892386 L25.7600266,49.5767192 L22.1182952,49.5767192 L22.1182952,25.9660644 L25.6434451,25.9660644 L25.6434451,28.9163862 L25.7103929,28.9163862 C26.7226903,27.01299 28.8811809,25.7813807 31.3594051,25.7813807 C35.8622242,25.7813807 38.8298602,29.3400044 38.8298602,34.8378069 M35.0865527,34.8378069 C35.0865527,31.2457092 33.2304817,28.8840666 30.3990499,28.8840666 C27.6160977,28.8840666 25.7450211,31.295343 25.7450211,34.8378069 C25.7450211,38.4125905 27.6160977,40.8065527 30.3990499,40.8065527 C33.2304817,40.8065527 35.0865527,38.4622242 35.0865527,34.8378069" id="Fill-12"></path> <path d="M58.3572741,34.8378069 C58.3572741,40.3506149 55.405798,43.8930788 50.9526127,43.8930788 C48.4247547,43.8930788 46.4174739,42.7618912 45.3705483,40.7892386 L45.2862863,40.7892386 L45.2862863,49.5767192 L41.6445549,49.5767192 L41.6445549,25.9660644 L45.1697048,25.9660644 L45.1697048,28.9163862 L45.2366526,28.9163862 C46.2489501,27.01299 48.4074406,25.7813807 50.8856648,25.7813807 C55.3884839,25.7813807 58.3572741,29.3400044 58.3572741,34.8378069 M54.6128124,34.8378069 C54.6128124,31.2457092 52.7567414,28.8840666 49.9253097,28.8840666 C47.1423574,28.8840666 45.2712808,31.295343 45.2712808,34.8378069 C45.2712808,38.4125905 47.1423574,40.8065527 49.9253097,40.8065527 C52.7567414,40.8065527 54.6128124,38.4622242 54.6128124,34.8378069" id="Fill-14"></path> <path d="M71.2607769,36.9276182 C71.5308768,39.3412031 73.8752053,40.9248657 77.078313,40.9248657 C80.147525,40.9248657 82.3556493,39.3412031 82.3556493,37.1653984 C82.3556493,35.2758535 81.0236182,34.1446659 77.8701443,33.3701487 L74.7166704,32.6106371 C70.2484795,31.5313918 68.1742508,29.4410033 68.1742508,26.0509034 C68.1742508,21.8528124 71.8332963,18.9682841 77.0263707,18.9682841 C82.1698113,18.9682841 85.6949612,21.8528124 85.8138513,26.0509034 L82.1374917,26.0509034 C81.9181798,23.622313 79.9097447,22.1563862 76.976737,22.1563862 C74.0437292,22.1563862 72.0364484,23.6396271 72.0364484,25.7981176 C72.0364484,27.5179845 73.3176915,28.5302819 76.4538513,29.3059534 L79.1352275,29.963889 C84.1274584,31.1447103 86.2005327,33.1496826 86.2005327,36.7094606 C86.2005327,41.2619134 82.5761154,44.1129678 76.8082131,44.1129678 C71.4119867,44.1129678 67.7679467,41.3288613 67.5336293,36.9276182 L71.2607769,36.9276182 Z" id="Fill-16"></path> <path d="M94.0632098,21.7678579 L94.0632098,25.9659489 L97.4371498,25.9659489 L97.4371498,28.8504772 L94.0632098,28.8504772 L94.0632098,38.6306326 C94.0632098,40.1496559 94.7384595,40.8583796 96.2217003,40.8583796 C96.5933762,40.8583796 97.184364,40.8064373 97.4198357,40.7741176 L97.4198357,43.6401776 C97.0158402,43.7417536 96.2066948,43.8087014 95.3975494,43.8087014 C91.8054517,43.8087014 90.4041643,42.4593563 90.4041643,39.0196226 L90.4041643,28.8504772 L87.824364,28.8504772 L87.824364,25.9659489 L90.4041643,25.9659489 L90.4041643,21.7678579 L94.0632098,21.7678579 Z" id="Fill-18"></path> <path d="M99.3887947,34.8378069 C99.3887947,29.2557425 102.676164,25.7479068 107.803445,25.7479068 C112.946886,25.7479068 116.21925,29.2557425 116.21925,34.8378069 C116.21925,40.4348768 112.9642,43.927707 107.803445,43.927707 C102.643845,43.927707 99.3887947,40.4348768 99.3887947,34.8378069 M112.508262,34.8378069 C112.508262,31.0090832 110.753767,28.7490166 107.803445,28.7490166 C104.851969,28.7490166 103.097474,31.0263973 103.097474,34.8378069 C103.097474,38.6826903 104.851969,40.9254428 107.803445,40.9254428 C110.753767,40.9254428 112.508262,38.6826903 112.508262,34.8378069" id="Fill-20"></path> <path d="M119.221514,25.9665261 L122.694721,25.9665261 L122.694721,28.9861043 L122.778983,28.9861043 C123.335343,26.9788235 124.954788,25.7806881 127.046331,25.7806881 C127.568062,25.7806881 128.006686,25.8499445 128.2941,25.9168923 L128.2941,29.3231521 C128.006686,29.2042619 127.366064,29.1026859 126.657341,29.1026859 C124.313012,29.1026859 122.863245,30.688657 122.863245,33.1841953 L122.863245,43.7077026 L119.221514,43.7077026 L119.221514,25.9665261 Z" id="Fill-22"></path> <path d="M145.083694,38.4966215 C144.594282,41.7170433 141.456968,43.9274761 137.444715,43.9274761 C132.28396,43.9274761 129.079698,40.4692741 129.079698,34.921838 C129.079698,29.3570877 132.301274,25.7488302 137.291196,25.7488302 C142.20032,25.7488302 145.286846,29.1204617 145.286846,34.499374 L145.286846,35.7471432 L132.756058,35.7471432 L132.756058,35.966455 C132.756058,39.0021931 134.661762,40.9921598 137.528977,40.9921598 C139.551263,40.9921598 141.138388,40.0318047 141.625492,38.4966215 L145.083694,38.4966215 Z M132.773372,33.2019711 L141.642806,33.2019711 C141.558544,30.4859667 139.821363,28.6991521 137.291196,28.6991521 C134.779498,28.6991521 132.95921,30.5205949 132.773372,33.2019711 Z" id="Fill-24"></path> <path d="M4.86537625,1.05800666 C8.33281243,1.05800666 10.3666415,3.18879467 10.3666415,6.86746282 C10.3666415,10.6026903 8.34781798,12.7496382 4.86537625,12.7496382 L0.641891232,12.7496382 L0.641891232,1.05800666 L4.86537625,1.05800666 Z M2.45756271,11.0967192 L4.6622242,11.0967192 C7.10812875,11.0967192 8.51865039,9.5730788 8.51865039,6.89170255 C8.51865039,4.24957159 7.08504329,2.71092564 4.6622242,2.71092564 L2.45756271,2.71092564 L2.45756271,11.0967192 Z" id="Fill-26"></path> <path d="M12.4182464,8.33419756 C12.4182464,5.49006881 14.0065261,3.75635072 16.5828635,3.75635072 C19.1522752,3.75635072 20.7405549,5.49006881 20.7405549,8.33419756 C20.7405549,11.1944861 19.1603552,12.9201243 16.5828635,12.9201243 C13.9984462,12.9201243 12.4182464,11.1944861 12.4182464,8.33419756 M18.9491232,8.33419756 C18.9491232,6.42156715 18.0903441,5.30307658 16.5828635,5.30307658 C15.0684573,5.30307658 14.2166038,6.42156715 14.2166038,8.33419756 C14.2166038,10.2618335 15.0684573,11.3722442 16.5828635,11.3722442 C18.0903441,11.3722442 18.9491232,10.2549079 18.9491232,8.33419756" id="Fill-28"></path> </g> <polygon id="Fill-31" fill="#231F20" points="101.059605 29.9548857 99.2531676 29.9548857 97.4294162 23.4563285 97.2920577 23.4563285 95.475232 29.9548857 93.6861088 29.9548857 91.2540555 21.1316226 93.0200932 21.1316226 94.6014473 27.8644972 94.7307259 27.8644972 96.5452431 21.1316226 98.2154761 21.1316226 100.029993 27.8644972 100.167352 27.8644972 101.740626 21.1316226 103.482424 21.1316226"></polygon> <path d="M105.527796,21.1311609 L107.2038,21.1311609 L107.2038,22.5324484 L107.334233,22.5324484 C107.762468,21.5524706 108.639716,20.9614828 109.96713,20.9614828 C111.93632,20.9614828 113.021336,22.1434584 113.021336,24.243081 L113.021336,29.954424 L111.280693,29.954424 L111.280693,24.6805505 C111.280693,23.2619489 110.664311,22.5566881 109.376142,22.5566881 C108.087973,22.5566881 107.269594,23.4154673 107.269594,24.792515 L107.269594,29.954424 L105.527796,29.954424 L105.527796,21.1311609 Z" id="Fill-32" fill="#231F20"></path> <polygon id="Fill-34" fill="#231F20" points="115.79667 29.9548857 117.538468 29.9548857 117.538468 17.6861176 115.79667 17.6861176"></polygon> <g id="Group-51" transform="translate(118.890122, 17.204786)" fill="#231F20"> <path d="M1.06816426,8.33419756 C1.06816426,5.49006881 2.65644395,3.75635072 5.23278135,3.75635072 C7.80219312,3.75635072 9.39162708,5.49006881 9.39162708,8.33419756 C9.39162708,11.1944861 7.81027303,12.9201243 5.23278135,12.9201243 C2.64836404,12.9201243 1.06816426,11.1944861 1.06816426,8.33419756 M7.59904107,8.33419756 C7.59904107,6.42156715 6.74026193,5.30307658 5.23278135,5.30307658 C3.71837514,5.30307658 2.86652164,6.42156715 2.86652164,8.33419756 C2.86652164,10.2618335 3.71837514,11.3722442 5.23278135,11.3722442 C6.74026193,11.3722442 7.59904107,10.2549079 7.59904107,8.33419756" id="Fill-35"></path> <path d="M11.2247281,10.2547925 C11.2247281,8.66651276 12.4067037,7.75117425 14.5063263,7.6207414 L16.8968257,7.48338291 L16.8968257,6.72156271 C16.8968257,5.7889101 16.280444,5.26371587 15.0903885,5.26371587 C14.1173363,5.26371587 13.4443951,5.62038624 13.2516315,6.24369367 L11.5652386,6.24369367 C11.7429967,4.72813319 13.1685239,3.75623529 15.1700333,3.75623529 C17.3827747,3.75623529 18.6305438,4.85741176 18.6305438,6.72156271 L18.6305438,12.7503307 L16.9545394,12.7503307 L16.9545394,11.5094872 L16.8160266,11.5094872 C16.2896781,12.3936604 15.3258602,12.8957691 14.1658158,12.8957691 C12.4644173,12.8957691 11.2247281,11.8673119 11.2247281,10.2547925 M16.8968257,9.50105216 L16.8968257,8.7634717 L14.741798,8.90083019 C13.5263485,8.98278357 12.9757603,9.39485905 12.9757603,10.1739933 C12.9757603,10.9681332 13.6648613,11.4298424 14.6113651,11.4298424 C15.9249279,11.4298424 16.8968257,10.5941487 16.8968257,9.50105216" id="Fill-37"></path> <path d="M20.919121,8.33419756 C20.919121,5.54662819 22.3527281,3.77943618 24.5816293,3.77943618 C25.7889989,3.77943618 26.8093762,4.35541842 27.2872453,5.32847059 L27.4176781,5.32847059 L27.4176781,0.481678135 L29.1594761,0.481678135 L29.1594761,12.7504462 L27.4903973,12.7504462 L27.4903973,11.3560844 L27.3530388,11.3560844 C26.8266903,12.3199023 25.7970788,12.8958846 24.5816293,12.8958846 C22.3365683,12.8958846 20.919121,11.1286926 20.919121,8.33419756 M22.7174784,8.33419756 C22.7174784,10.2064284 23.6004972,11.3318446 25.0756582,11.3318446 C26.5427392,11.3318446 27.4499978,10.1891143 27.4499978,8.34227747 C27.4499978,6.50352053 26.533505,5.34463041 25.0756582,5.34463041 C23.6097314,5.34463041 22.7174784,6.47812653 22.7174784,8.33419756" id="Fill-39"></path> <path d="M36.3636404,8.33419756 C36.3636404,5.49006881 37.9519201,3.75635072 40.5271032,3.75635072 C43.0976693,3.75635072 44.6859489,5.49006881 44.6859489,8.33419756 C44.6859489,11.1944861 43.1057492,12.9201243 40.5271032,12.9201243 C37.9438402,12.9201243 36.3636404,11.1944861 36.3636404,8.33419756 M42.8945172,8.33419756 C42.8945172,6.42156715 42.0357381,5.30307658 40.5271032,5.30307658 C39.0138513,5.30307658 38.1619978,6.42156715 38.1619978,8.33419756 C38.1619978,10.2618335 39.0138513,11.3722442 40.5271032,11.3722442 C42.0357381,11.3722442 42.8945172,10.2549079 42.8945172,8.33419756" id="Fill-41"></path> <path d="M47.0224284,3.92637514 L48.6984329,3.92637514 L48.6984329,5.3276626 L48.8288657,5.3276626 C49.2582553,4.34768479 50.1343485,3.756697 51.4617625,3.756697 C53.4309523,3.756697 54.5159689,4.93867259 54.5159689,7.03829523 L54.5159689,12.7496382 L52.7753252,12.7496382 L52.7753252,7.47576471 C52.7753252,6.05716315 52.1589434,5.35190233 50.8707747,5.35190233 C49.582606,5.35190233 48.7642264,6.21068147 48.7642264,7.58772919 L48.7642264,12.7496382 L47.0224284,12.7496382 L47.0224284,3.92637514 Z" id="Fill-43"></path> <path d="M64.3558002,1.72956271 L64.3558002,3.96654384 L66.2672764,3.96654384 L66.2672764,5.43362486 L64.3558002,5.43362486 L64.3558002,9.97107214 C64.3558002,10.8944906 64.7367103,11.2996404 65.6035694,11.2996404 C65.8713607,11.2996404 66.024879,11.2834806 66.2672764,11.2592408 L66.2672764,12.710162 C65.9844795,12.7574872 65.6589745,12.7990411 65.3207725,12.7990411 C63.3839023,12.7990411 62.6128479,12.11802 62.6128479,10.4166215 L62.6128479,5.43362486 L61.2115605,5.43362486 L61.2115605,3.96654384 L62.6128479,3.96654384 L62.6128479,1.72956271 L64.3558002,1.72956271 Z" id="Fill-45"></path> <path d="M68.6462331,0.48190899 L70.3718713,0.48190899 L70.3718713,5.34486127 L70.510384,5.34486127 C70.9386193,4.35564928 71.8701176,3.76350721 73.2009945,3.76350721 C75.0801509,3.76350721 76.2390411,4.95471698 76.2390411,7.05318535 L76.2390411,12.750677 L74.4960888,12.750677 L74.4960888,7.48257492 C74.4960888,6.07320755 73.8393074,5.35986681 72.6088524,5.35986681 C71.1821709,5.35986681 70.3880311,6.26019978 70.3880311,7.59684795 L70.3880311,12.750677 L68.6462331,12.750677 L68.6462331,0.48190899 Z" id="Fill-47"></path> <path d="M86.3929501,10.3675649 C85.9970344,11.948919 84.5865128,12.9208169 82.5699978,12.9208169 C80.0421398,12.9208169 78.4931054,11.1870988 78.4931054,8.36605549 C78.4931054,5.54616648 80.0744595,3.75588901 82.5619179,3.75588901 C85.0170566,3.75588901 86.4979889,5.43304772 86.4979889,8.20445727 L86.4979889,8.81160488 L80.2672231,8.81160488 L80.2672231,8.90971809 C80.3249367,10.456444 81.2241154,11.437576 82.617323,11.437576 C83.6723285,11.437576 84.3937492,11.0566659 84.7169456,10.3675649 L86.3929501,10.3675649 Z M80.2672231,7.52459046 L84.7238713,7.52459046 C84.684626,6.13830855 83.8420067,5.23797558 82.5526837,5.23797558 C81.264515,5.23797558 80.3653363,6.14638846 80.2672231,7.52459046 Z" id="Fill-49"></path> </g> </g> </g> </g> </g> </g> </g> </svg> 